
<!-- Modified 2026-10-02 by Monochrome Icons contributors.
SPDX-License-Identifier: GPL-3.0-only
Credits: 2026 Monochrome Icons contributors
Original artwork license: GPL-3.0-only
Source and full notices: assets.json and ATTRIBUTION.md in monochrome-icons.
-->
<svg xmlns="http://www.w3.org/2000/svg" width="256" height="256" viewBox="0 0 64 64"><g transform="translate(1.6 1.6) scale(0.95)"><rect x="2" y="2" width="60" height="60" rx="12" fill="black" stroke="white" stroke-width="2.4" /><svg viewBox="0.4781249999999999 -0.2250000000000001 23.090625 24.825" width="44" height="44" x="10" y="10"><g transform="translate(15.6 0.10000000000000009) scale(0.85)"><path d="M5.7 .5C1.2-.7-1.3 4.8 1.8 7.4c3 2.5 7.2.1 6.8-2.6C4 6.5 2.4 3 5.7 .5Z" fill="white" /></g><g transform="translate(1 4) scale(0.95)"><path d="M5 12C-1 12-1 4 5 3c2-5 9-4 11 0 7-1 9 9 2 9Z" fill="white" stroke="black" stroke-width=".8" stroke-linejoin="round" /></g><path d="M5 17l-1.4 4M18 17l-1.4 4" stroke="white" stroke-width="1.5" stroke-linecap="round" /><path d="M10.0 19h3M10.7 17.7l1.6 2.6m-1.6 0 1.6-2.6" fill="none" stroke="white" stroke-width="1.2" stroke-linecap="round" /><path d="M14 12h5l-3 5h3l-8 7 2-7h-3Z" fill="white" stroke="black" stroke-width=".9" stroke-linejoin="round" /></svg></g></svg>