
<!-- Modified 2026-10-02 by Monochrome Icons contributors.
SPDX-License-Identifier: GPL-3.0-only
Credits: Vince Liuice and WhiteSur contributors
Original artwork license: GPL-3.0-only
Source and full notices: assets.json and ATTRIBUTION.md in monochrome-icons.
-->
<svg xmlns="http://www.w3.org/2000/svg" width="256" height="256" viewBox="0 0 64 64"><g transform="translate(1.6 1.6) scale(0.95)"><rect x="2" y="2" width="60" height="60" rx="12" fill="black" stroke="white" stroke-width="2.4" /><svg viewBox="0.3843749999999999 2.4 23.559375 21.54375" width="44" height="44" x="10" y="10"><rect x="1" y="3" width="22" height="18" rx="2" fill="white" />
            <path d="m2 5 10 7L22 5M2 19l6-5m14 5-5-5" fill="none" stroke="black" stroke-width="1.4" stroke-linejoin="round" />
            <circle cx="17" cy="17" r="6.3" fill="black" /><svg viewBox="0 0 20 20" x="13" y="13" width="8" height="8"><g fill="none" stroke="white" stroke-width="2.2" stroke-linecap="round" stroke-linejoin="round">
            <circle cx="10" cy="10" r="3.1" />
            <path d="M13.1 7v6c0 2.5 4.9 2.5 4.9-3v-.3A8 8 0 1 0 15 16.3" /></g></svg></svg></g></svg>